<svg version="1.1" viewBox="0.0 0.0 702.0 434.0" fill="none" stroke="none" stroke-linecap="square" stroke-miterlimit="10" width="702" height="434" xmlns:xlink="http://www.w3.org/1999/xlink" xmlns="http://www.w3.org/2000/svg"><path fill="#ffffff" d="M0 0L702.0 0L702.0 434.0L0 434.0L0 0Z" fill-rule="nonzero"/><path stroke="#333333" stroke-width="1.0" stroke-linecap="butt" d="M103.5 334.5L680.5 334.5" fill-rule="nonzero"/><path stroke="#cccccc" stroke-width="1.0" stroke-linecap="butt" d="M103.5 243.5L680.5 243.5" fill-rule="nonzero"/><path stroke="#cccccc" stroke-width="1.0" stroke-linecap="butt" d="M103.5 152.5L680.5 152.5" fill-rule="nonzero"/><path stroke="#cccccc" stroke-width="1.0" stroke-linecap="butt" d="M103.5 61.5L680.5 61.5" fill-rule="nonzero"/><clipPath id="id_0"><path d="M103.7 61.125286L680.3 61.125286L680.3 334.3L103.7 334.3L103.7 61.125286Z" clip-rule="nonzero"/></clipPath><path stroke="#8db8ff" stroke-width="2.0" stroke-linecap="butt" clip-path="url(#id_0)" d="M161.36 330.8307L276.68 320.1541L392.0 290.22327L507.32 223.42749L622.64 94.2887" fill-rule="nonzero"/><path stroke="#ea4335" stroke-width="2.0" stroke-linecap="butt" clip-path="url(#id_0)" d="M161.36 331.805L276.68 322.67188L392.0 294.6396L507.32 231.47704L622.64 116.78008" fill-rule="nonzero"/><path fill="#000000" fill-opacity="0.0" clip-path="url(#id_0)" d="M164.36 330.8307C164.36 332.48755 163.01686 333.8307 161.36 333.8307C159.70314 333.8307 158.36 332.48755 158.36 330.8307C158.36 329.17383 159.70314 327.8307 161.36 327.8307C163.01686 327.8307 164.36 329.17383 164.36 330.8307Z" fill-rule="nonzero"/><path fill="#000000" fill-opacity="0.0" clip-path="url(#id_0)" d="M279.68 320.1541C279.68 321.81094 278.33685 323.1541 276.68 323.1541C275.02313 323.1541 273.68 321.81094 273.68 320.1541C273.68 318.49725 275.02313 317.1541 276.68 317.1541C278.33685 317.1541 279.68 318.49725 279.68 320.1541Z" fill-rule="nonzero"/><path fill="#000000" fill-opacity="0.0" clip-path="url(#id_0)" d="M395.0 290.22327C395.0 291.88013 393.65686 293.22327 392.0 293.22327C390.34314 293.22327 389.0 291.88013 389.0 290.22327C389.0 288.5664 390.34314 287.22327 392.0 287.22327C393.65686 287.22327 395.0 288.5664 395.0 290.22327Z" fill-rule="nonzero"/><path fill="#000000" fill-opacity="0.0" clip-path="url(#id_0)" d="M510.32 223.42749C510.32 225.08435 508.97687 226.42749 507.32 226.42749C505.66315 226.42749 504.32 225.08435 504.32 223.42749C504.32 221.77063 505.66315 220.42749 507.32 220.42749C508.97687 220.42749 510.32 221.77063 510.32 223.42749Z" fill-rule="nonzero"/><path fill="#000000" fill-opacity="0.0" clip-path="url(#id_0)" d="M625.64 94.2887C625.64 95.94555 624.2969 97.2887 622.64 97.2887C620.98315 97.2887 619.64 95.94555 619.64 94.2887C619.64 92.63184 620.98315 91.2887 622.64 91.2887C624.2969 91.2887 625.64 92.63184 625.64 94.2887Z" fill-rule="nonzero"/><path fill="#000000" fill-opacity="0.0" clip-path="url(#id_0)" d="M164.36 331.805C164.36 333.46185 163.01686 334.805 161.36 334.805C159.70314 334.805 158.36 333.46185 158.36 331.805C158.36 330.14816 159.70314 328.805 161.36 328.805C163.01686 328.805 164.36 330.14816 164.36 331.805Z" fill-rule="nonzero"/><path fill="#000000" fill-opacity="0.0" clip-path="url(#id_0)" d="M279.68 322.67188C279.68 324.3287 278.33685 325.67188 276.68 325.67188C275.02313 325.67188 273.68 324.3287 273.68 322.67188C273.68 321.015 275.02313 319.67188 276.68 319.67188C278.33685 319.67188 279.68 321.015 279.68 322.67188Z" fill-rule="nonzero"/><path fill="#000000" fill-opacity="0.0" clip-path="url(#id_0)" d="M395.0 294.6396C395.0 296.29645 393.65686 297.6396 392.0 297.6396C390.34314 297.6396 389.0 296.29645 389.0 294.6396C389.0 292.98273 390.34314 291.6396 392.0 291.6396C393.65686 291.6396 395.0 292.98273 395.0 294.6396Z" fill-rule="nonzero"/><path fill="#000000" fill-opacity="0.0" clip-path="url(#id_0)" d="M510.32 231.47704C510.32 233.1339 508.97687 234.47704 507.32 234.47704C505.66315 234.47704 504.32 233.1339 504.32 231.47704C504.32 229.82019 505.66315 228.47704 507.32 228.47704C508.97687 228.47704 510.32 229.82019 510.32 231.47704Z" fill-rule="nonzero"/><path fill="#000000" fill-opacity="0.0" clip-path="url(#id_0)" d="M625.64 116.78008C625.64 118.436935 624.2969 119.78008 622.64 119.78008C620.98315 119.78008 619.64 118.436935 619.64 116.78008C619.64 115.12323 620.98315 113.78008 622.64 113.78008C624.2969 113.78008 625.64 115.12323 625.64 116.78008Z" fill-rule="nonzero"/><path fill="#000000" d="M354.1875 411.8781L354.1875 398.97186L355.625 398.97186L355.625 400.175Q356.14062 399.47186 356.78125 399.1125Q357.42188 398.7531 358.32812 398.7531Q359.53125 398.7531 360.4375 399.3781Q361.35938 399.9875 361.82812 401.1125Q362.29688 402.22186 362.29688 403.5656Q362.29688 404.9875 361.78125 406.14374Q361.26562 407.28436 360.28125 407.90936Q359.29688 408.51874 358.21875 408.51874Q357.4375 408.51874 356.79688 408.1906Q356.17188 407.84686 355.76562 407.33124L355.76562 411.8781L354.1875 411.8781ZM355.625 403.6906Q355.625 405.4875 356.34375 406.34686Q357.07812 407.20624 358.10938 407.20624Q359.17188 407.20624 359.92188 406.3156Q360.67188 405.425 360.67188 403.55Q360.67188 401.76874 359.9375 400.8781Q359.20312 399.9875 358.1875 399.9875Q357.17188 399.9875 356.39062 400.9406Q355.625 401.8781 355.625 403.6906ZM370.57812 405.3L372.21875 405.5031Q371.82812 406.925 370.78125 407.72186Q369.73438 408.51874 368.10938 408.51874Q366.0625 408.51874 364.85938 407.2531Q363.65625 405.9875 363.65625 403.70624Q363.65625 401.3625 364.85938 400.0656Q366.07812 398.7531 368.01562 398.7531Q369.89062 398.7531 371.07812 400.03436Q372.26562 401.3 372.26562 403.6125Q372.26562 403.7531 372.25 404.03436L365.29688 404.03436Q365.375 405.58124 366.15625 406.39374Q366.95312 407.20624 368.10938 407.20624Q368.98438 407.20624 369.59375 406.7531Q370.21875 406.3 370.57812 405.3ZM365.375 402.7375L370.59375 402.7375Q370.48438 401.5656 370.0 400.97186Q369.23438 400.05 368.03125 400.05Q366.95312 400.05 366.20312 400.78436Q365.46875 401.51874 365.375 402.7375ZM374.17188 408.3L374.17188 398.97186L375.59375 398.97186L375.59375 400.3781Q376.14062 399.39374 376.59375 399.08124Q377.0625 398.7531 377.60938 398.7531Q378.42188 398.7531 379.23438 399.26874L378.70312 400.7375Q378.10938 400.39374 377.53125 400.39374Q377.01562 400.39374 376.59375 400.70624Q376.1875 401.01874 376.01562 401.5656Q375.75 402.40936 375.75 403.40936L375.75 408.3L374.17188 408.3ZM386.28125 404.8781L387.82812 405.08124Q387.57812 406.6906 386.53125 407.6125Q385.48438 408.51874 383.95312 408.51874Q382.03125 408.51874 380.85938 407.26874Q379.70312 406.0031 379.70312 403.675Q379.70312 402.15936 380.20312 401.03436Q380.70312 399.89374 381.71875 399.33124Q382.75 398.7531 383.95312 398.7531Q385.48438 398.7531 386.4375 399.53436Q387.40625 400.3 387.6875 401.70624L386.14062 401.9406Q385.92188 401.0031 385.35938 400.53436Q384.8125 400.05 384.01562 400.05Q382.82812 400.05 382.07812 400.90936Q381.32812 401.76874 381.32812 403.6281Q381.32812 405.5031 382.04688 406.3625Q382.76562 407.20624 383.9375 407.20624Q384.85938 407.20624 385.48438 406.64374Q386.10938 406.0656 386.28125 404.8781ZM395.57812 405.3L397.21875 405.5031Q396.82812 406.925 395.78125 407.72186Q394.73438 408.51874 393.10938 408.51874Q391.0625 408.51874 389.85938 407.2531Q388.65625 405.9875 388.65625 403.70624Q388.65625 401.3625 389.85938 400.0656Q391.07812 398.7531 393.01562 398.7531Q394.89062 398.7531 396.07812 400.03436Q397.26562 401.3 397.26562 403.6125Q397.26562 403.7531 397.25 404.03436L390.29688 404.03436Q390.375 405.58124 391.15625 406.39374Q391.95312 407.20624 393.10938 407.20624Q393.98438 407.20624 394.59375 406.7531Q395.21875 406.3 395.57812 405.3ZM390.375 402.7375L395.59375 402.7375Q395.48438 401.5656 395.0 400.97186Q394.23438 400.05 393.03125 400.05Q391.95312 400.05 391.20312 400.78436Q390.46875 401.51874 390.375 402.7375ZM399.1875 408.3L399.1875 398.97186L400.60938 398.97186L400.60938 400.3Q401.64062 398.7531 403.57812 398.7531Q404.42188 398.7531 405.125 399.0656Q405.84375 399.3625 406.1875 399.8625Q406.54688 400.34686 406.6875 401.01874Q406.76562 401.45624 406.76562 402.5656L406.76562 408.3L405.1875 408.3L405.1875 402.6281Q405.1875 401.65936 405.0 401.175Q404.82812 400.6906 404.34375 400.40936Q403.875 400.1281 403.25 400.1281Q402.23438 400.1281 401.5 400.76874Q400.76562 401.40936 400.76562 403.20624L400.76562 408.3L399.1875 408.3ZM412.64062 406.8781L412.875 408.28436Q412.20312 408.425 411.67188 408.425Q410.8125 408.425 410.32812 408.15936Q409.85938 407.8781 409.67188 407.4406Q409.48438 406.9875 409.48438 405.5656L409.48438 400.1906L408.3125 400.1906L408.3125 398.97186L409.48438 398.97186L409.48438 396.65936L411.04688 395.70624L411.04688 398.97186L412.64062 398.97186L412.64062 400.1906L411.04688 400.1906L411.04688 405.65936Q411.04688 406.33124 411.125 406.53436Q411.21875 406.72186 411.40625 406.83124Q411.59375 406.9406 411.95312 406.9406Q412.20312 406.9406 412.64062 406.8781ZM414.20312 397.2375L414.20312 395.40936L415.78125 395.40936L415.78125 397.2375L414.20312 397.2375ZM414.20312 408.3L414.20312 398.97186L415.78125 398.97186L415.78125 408.3L414.20312 408.3ZM418.15625 408.3L418.15625 395.40936L419.73438 395.40936L419.73438 408.3L418.15625 408.3ZM428.57812 405.3L430.21875 405.5031Q429.82812 406.925 428.78125 407.72186Q427.73438 408.51874 426.10938 408.51874Q424.0625 408.51874 422.85938 407.2531Q421.65625 405.9875 421.65625 403.70624Q421.65625 401.3625 422.85938 400.0656Q424.07812 398.7531 426.01562 398.7531Q427.89062 398.7531 429.07812 400.03436Q430.26562 401.3 430.26562 403.6125Q430.26562 403.7531 430.25 404.03436L423.29688 404.03436Q423.375 405.58124 424.15625 406.39374Q424.95312 407.20624 426.10938 407.20624Q426.98438 407.20624 427.59375 406.7531Q428.21875 406.3 428.57812 405.3ZM423.375 402.7375L428.59375 402.7375Q428.48438 401.5656 428.0 400.97186Q427.23438 400.05 426.03125 400.05Q424.95312 400.05 424.20312 400.78436Q423.46875 401.51874 423.375 402.7375Z" fill-rule="nonzero"/><path fill="#000000" d="M38.69999 263.50952L25.809362 263.50952L25.809362 261.9314L33.16874 261.9314L29.371862 258.19702L29.371862 256.15015L32.82499 259.71265L38.69999 255.77515L38.69999 257.72827L33.934364 260.82202L34.996864 261.9314L38.69999 261.9314L38.69999 263.50952ZM38.69999 253.07202L38.69999 254.54077L25.809362 254.54077L25.809362 252.94702L30.418737 252.94702Q29.153112 251.94702 29.153112 250.40015Q29.153112 249.54077 29.512487 248.77515Q29.856237 247.9939 30.481237 247.50952Q31.106237 247.00952 31.996862 246.72827Q32.88749 246.44702 33.88749 246.44702Q36.29374 246.44702 37.60624 247.63452Q38.91874 248.8064 38.91874 250.47827Q38.91874 252.1189 37.528114 253.07202L38.69999 253.07202ZM33.965614 253.08765Q35.63749 253.08765 36.38749 252.63452Q37.60624 251.88452 37.60624 250.60327Q37.60624 249.57202 36.715614 248.82202Q35.809364 248.0564 34.028114 248.0564Q32.19999 248.0564 31.324987 248.79077Q30.449987 249.50952 30.449987 250.54077Q30.449987 251.57202 31.356237 252.33765Q32.26249 253.08765 33.965614 253.08765ZM37.278114 236.07202L38.684364 235.83765Q38.82499 236.50952 38.82499 237.04077Q38.82499 237.90015 38.559364 238.38452Q38.278114 238.85327 37.840614 239.04077Q37.38749 239.22827 35.965614 239.22827L30.590612 239.22827L30.590612 240.40015L29.371862 240.40015L29.371862 239.22827L27.059362 239.22827L26.106237 237.66577L29.371862 237.66577L29.371862 236.07202L30.590612 236.07202L30.590612 237.66577L36.059364 237.66577Q36.73124 237.66577 36.934364 237.58765Q37.121864 237.4939 37.23124 237.3064Q37.340614 237.1189 37.340614 236.75952Q37.340614 236.50952 37.278114 236.07202ZM38.69999 234.54077L29.371862 234.54077L29.371862 233.1189L30.778112 233.1189Q29.793737 232.57202 29.481237 232.1189Q29.153112 231.65015 29.153112 231.10327Q29.153112 230.29077 29.668737 229.47827L31.137487 230.00952Q30.793737 230.60327 30.793737 231.1814Q30.793737 231.69702 31.106237 232.1189Q31.418737 232.52515 31.965612 232.69702Q32.809364 232.96265 33.809364 232.96265L38.69999 232.96265L38.69999 234.54077ZM37.54374 222.4314Q38.29374 223.3064 38.60624 224.13452Q38.91874 224.94702 38.91874 225.8689Q38.91874 227.41577 38.16874 228.2439Q37.403114 229.0564 36.23124 229.0564Q35.559364 229.0564 34.996864 228.7439Q34.41874 228.4314 34.07499 227.9314Q33.73124 227.4314 33.559364 226.79077Q33.434364 226.32202 33.32499 225.38452Q33.090614 223.47827 32.778114 222.57202Q32.44999 222.5564 32.35624 222.5564Q31.403112 222.5564 30.996862 223.00952Q30.465612 223.6189 30.465612 224.8064Q30.465612 225.9314 30.856237 226.46265Q31.246862 226.9939 32.246864 227.2439L32.028114 228.79077Q31.028112 228.57202 30.418737 228.10327Q29.809362 227.6189 29.481237 226.71265Q29.153112 225.79077 29.153112 224.57202Q29.153112 223.38452 29.434362 222.63452Q29.715612 221.88452 30.153112 221.54077Q30.574987 221.1814 31.215612 221.04077Q31.621862 220.96265 32.684364 220.96265L34.79374 220.96265Q36.996864 220.96265 37.590614 220.8689Q38.16874 220.75952 38.69999 220.46265L38.69999 222.1189Q38.19999 222.3689 37.54374 222.4314ZM34.01249 222.57202Q34.371864 223.4314 34.60624 225.15015Q34.746864 226.1189 34.934364 226.52515Q35.10624 226.9314 35.44999 227.15015Q35.778114 227.3689 36.19999 227.3689Q36.82499 227.3689 37.246864 226.90015Q37.66874 226.41577 37.66874 225.4939Q37.66874 224.57202 37.278114 223.8689Q36.871864 223.15015 36.184364 222.82202Q35.63749 222.57202 34.590614 222.57202L34.01249 222.57202ZM38.69999 218.52515L29.371862 218.52515L29.371862 217.10327L30.699987 217.10327Q29.153112 216.07202 29.153112 214.13452Q29.153112 213.29077 29.465612 212.58765Q29.762487 211.8689 30.262487 211.52515Q30.746862 211.16577 31.418737 211.02515Q31.856237 210.94702 32.965614 210.94702L38.69999 210.94702L38.69999 212.52515L33.028114 212.52515Q32.059364 212.52515 31.574987 212.71265Q31.090612 212.88452 30.809362 213.3689Q30.528112 213.83765 30.528112 214.46265Q30.528112 215.47827 31.168737 216.21265Q31.809362 216.94702 33.60624 216.94702L38.69999 216.94702L38.69999 218.52515ZM35.91874 209.16577L35.66874 207.58765Q36.60624 207.46265 37.10624 206.8689Q37.60624 206.25952 37.60624 205.1814Q37.60624 204.08765 37.16874 203.5564Q36.715614 203.02515 36.121864 203.02515Q35.590614 203.02515 35.278114 203.4939Q35.07499 203.82202 34.746864 205.1189Q34.309364 206.85327 33.996864 207.52515Q33.66874 208.19702 33.10624 208.5564Q32.528114 208.90015 31.840612 208.90015Q31.215612 208.90015 30.684362 208.6189Q30.153112 208.32202 29.809362 207.83765Q29.528112 207.46265 29.340612 206.82202Q29.153112 206.1814 29.153112 205.46265Q29.153112 204.35327 29.481237 203.52515Q29.793737 202.69702 30.340612 202.3064Q30.871862 201.90015 31.778112 201.75952L31.981237 203.3064Q31.262487 203.41577 30.856237 203.91577Q30.449987 204.41577 30.449987 205.33765Q30.449987 206.4314 30.809362 206.90015Q31.168737 207.3689 31.653112 207.3689Q31.965612 207.3689 32.215614 207.16577Q32.465614 206.97827 32.63749 206.57202Q32.715614 206.32202 33.04374 205.16577Q33.48124 203.4939 33.778114 202.83765Q34.059364 202.16577 34.60624 201.79077Q35.153114 201.40015 35.94999 201.40015Q36.746864 201.40015 37.44999 201.8689Q38.153114 202.32202 38.54374 203.19702Q38.91874 204.07202 38.91874 205.16577Q38.91874 206.9939 38.16874 207.94702Q37.403114 208.90015 35.91874 209.16577ZM38.69999 199.15015L30.590612 199.15015L30.590612 200.54077L29.371862 200.54077L29.371862 199.15015L28.371862 199.15015Q27.434362 199.15015 26.981237 198.97827Q26.356237 198.75952 25.981237 198.1814Q25.590612 197.60327 25.590612 196.5564Q25.590612 195.90015 25.746862 195.08765L27.137487 195.32202Q27.043737 195.82202 27.043737 196.25952Q27.043737 196.97827 27.356237 197.27515Q27.653112 197.57202 28.496862 197.57202L29.371862 197.57202L29.371862 195.75952L30.590612 195.75952L30.590612 197.57202L38.69999 197.57202L38.69999 199.15015ZM35.69999 188.13452L35.903114 186.4939Q37.32499 186.88452 38.121864 187.9314Q38.91874 188.97827 38.91874 190.60327Q38.91874 192.65015 37.653114 193.85327Q36.38749 195.0564 34.10624 195.0564Q31.762487 195.0564 30.465612 193.85327Q29.153112 192.63452 29.153112 190.69702Q29.153112 188.82202 30.434362 187.63452Q31.699987 186.44702 34.01249 186.44702Q34.153114 186.44702 34.434364 186.46265L34.434364 193.41577Q35.98124 193.33765 36.79374 192.5564Q37.60624 191.75952 37.60624 190.60327Q37.60624 189.72827 37.153114 189.1189Q36.69999 188.4939 35.69999 188.13452ZM33.13749 193.33765L33.13749 188.1189Q31.965612 188.22827 31.371862 188.71265Q30.449987 189.47827 30.449987 190.6814Q30.449987 191.75952 31.184362 192.50952Q31.918737 193.2439 33.13749 193.33765ZM38.69999 184.54077L29.371862 184.54077L29.371862 183.1189L30.778112 183.1189Q29.793737 182.57202 29.481237 182.1189Q29.153112 181.65015 29.153112 181.10327Q29.153112 180.29077 29.668737 179.47827L31.137487 180.00952Q30.793737 180.60327 30.793737 181.1814Q30.793737 181.69702 31.106237 182.1189Q31.418737 182.52515 31.965612 182.69702Q32.809364 182.96265 33.809364 182.96265L38.69999 182.96265L38.69999 184.54077ZM38.69999 178.54077L29.371862 178.54077L29.371862 177.1189L30.778112 177.1189Q29.793737 176.57202 29.481237 176.1189Q29.153112 175.65015 29.153112 175.10327Q29.153112 174.29077 29.668737 173.47827L31.137487 174.00952Q30.793737 174.60327 30.793737 175.1814Q30.793737 175.69702 31.106237 176.1189Q31.418737 176.52515 31.965612 176.69702Q32.809364 176.96265 33.809364 176.96265L38.69999 176.96265L38.69999 178.54077ZM35.69999 166.13452L35.903114 164.4939Q37.32499 164.88452 38.121864 165.9314Q38.91874 166.97827 38.91874 168.60327Q38.91874 170.65015 37.653114 171.85327Q36.38749 173.0564 34.10624 173.0564Q31.762487 173.0564 30.465612 171.85327Q29.153112 170.63452 29.153112 168.69702Q29.153112 166.82202 30.434362 165.63452Q31.699987 164.44702 34.01249 164.44702Q34.153114 164.44702 34.434364 164.46265L34.434364 171.41577Q35.98124 171.33765 36.79374 170.5564Q37.60624 169.75952 37.60624 168.60327Q37.60624 167.72827 37.153114 167.1189Q36.69999 166.4939 35.69999 166.13452ZM33.13749 171.33765L33.13749 166.1189Q31.965612 166.22827 31.371862 166.71265Q30.449987 167.47827 30.449987 168.6814Q30.449987 169.75952 31.184362 170.50952Q31.918737 171.2439 33.13749 171.33765ZM38.69999 156.46265L37.528114 156.46265Q38.91874 157.35327 38.91874 159.08765Q38.91874 160.19702 38.309364 161.13452Q37.684364 162.07202 36.590614 162.58765Q35.48124 163.10327 34.04374 163.10327Q32.63749 163.10327 31.512487 162.63452Q30.371862 162.16577 29.762487 161.2439Q29.153112 160.3064 29.153112 159.15015Q29.153112 158.3064 29.512487 157.65015Q29.871862 156.9939 30.434362 156.57202L25.809362 156.57202L25.809362 155.00952L38.69999 155.00952L38.69999 156.46265ZM34.04374 161.47827Q35.840614 161.47827 36.73124 160.72827Q37.60624 159.96265 37.60624 158.9314Q37.60624 157.90015 36.76249 157.1814Q35.91874 156.44702 34.16874 156.44702Q32.26249 156.44702 31.371862 157.1814Q30.465612 157.91577 30.465612 158.9939Q30.465612 160.0564 31.324987 160.77515Q32.184364 161.47827 34.04374 161.47827Z" fill-rule="nonzero"/><path fill="#000000" d="M91.2 334.0656Q91.2 332.53436 91.5125 331.6125Q91.825 330.675 92.43437 330.175Q93.05937 329.675 93.99687 329.675Q94.68437 329.675 95.2 329.95624Q95.73125 330.2375 96.075 330.76874Q96.41875 331.28436 96.60625 332.03436Q96.79375 332.78436 96.79375 334.0656Q96.79375 335.58124 96.48125 336.5031Q96.18437 337.425 95.55937 337.9406Q94.95 338.4406 93.99687 338.4406Q92.7625 338.4406 92.04375 337.55Q91.2 336.4875 91.2 334.0656ZM92.27812 334.0656Q92.27812 336.175 92.77812 336.8781Q93.27812 337.58124 93.99687 337.58124Q94.73125 337.58124 95.21562 336.8781Q95.71562 336.175 95.71562 334.0656Q95.71562 331.9406 95.21562 331.2531Q94.73125 330.55 93.98125 330.55Q93.2625 330.55 92.825 331.15936Q92.27812 331.9406 92.27812 334.0656Z" fill-rule="nonzero"/><path fill="#000000" d="M75.74687 246.22614L75.74687 247.24176L70.05937 247.24176Q70.05937 246.86676 70.18437 246.50739Q70.40312 245.92926 70.87187 245.36676Q71.35625 244.80426 72.2625 244.06989Q73.66875 242.91364 74.15312 242.24176Q74.65312 241.56989 74.65312 240.97614Q74.65312 240.35114 74.2 239.92926Q73.74687 239.49176 73.02812 239.49176Q72.2625 239.49176 71.80937 239.94489Q71.35625 240.39801 71.34062 241.21051L70.2625 241.10114Q70.37187 239.88239 71.09062 239.25739Q71.825 238.61676 73.05937 238.61676Q74.29375 238.61676 75.0125 239.30426Q75.73125 239.99176 75.73125 241.00739Q75.73125 241.52301 75.5125 242.02301Q75.30937 242.50739 74.80937 243.06989Q74.325 243.61676 73.2 244.56989Q72.24687 245.36676 71.96562 245.66364Q71.7 245.94489 71.52812 246.22614L75.74687 246.22614ZM77.2 243.00739Q77.2 241.47614 77.5125 240.55426Q77.825 239.61676 78.43437 239.11676Q79.05937 238.61676 79.99687 238.61676Q80.68437 238.61676 81.2 238.89801Q81.73125 239.17926 82.075 239.71051Q82.41875 240.22614 82.60625 240.97614Q82.79375 241.72614 82.79375 243.00739Q82.79375 244.52301 82.48125 245.44489Q82.18437 246.36676 81.55937 246.88239Q80.95 247.38239 79.99687 247.38239Q78.7625 247.38239 78.04375 246.49176Q77.2 245.42926 77.2 243.00739ZM78.27812 243.00739Q78.27812 245.11676 78.77812 245.81989Q79.27812 246.52301 79.99687 246.52301Q80.73125 246.52301 81.21562 245.81989Q81.71562 245.11676 81.71562 243.00739Q81.71562 240.88239 81.21562 240.19489Q80.73125 239.49176 79.98125 239.49176Q79.2625 239.49176 78.825 240.10114Q78.27812 240.88239 78.27812 243.00739ZM84.2 243.00739Q84.2 241.47614 84.5125 240.55426Q84.825 239.61676 85.43437 239.11676Q86.05937 238.61676 86.99687 238.61676Q87.68437 238.61676 88.2 238.89801Q88.73125 239.17926 89.075 239.71051Q89.41875 240.22614 89.60625 240.97614Q89.79375 241.72614 89.79375 243.00739Q89.79375 244.52301 89.48125 245.44489Q89.18437 246.36676 88.55937 246.88239Q87.95 247.38239 86.99687 247.38239Q85.7625 247.38239 85.04375 246.49176Q84.2 245.42926 84.2 243.00739ZM85.27812 243.00739Q85.27812 245.11676 85.77812 245.81989Q86.27812 246.52301 86.99687 246.52301Q87.73125 246.52301 88.21562 245.81989Q88.71562 245.11676 88.71562 243.00739Q88.71562 240.88239 88.21562 240.19489Q87.73125 239.49176 86.98125 239.49176Q86.2625 239.49176 85.825 240.10114Q85.27812 240.88239 85.27812 243.00739ZM91.2 243.00739Q91.2 241.47614 91.5125 240.55426Q91.825 239.61676 92.43437 239.11676Q93.05937 238.61676 93.99687 238.61676Q94.68437 238.61676 95.2 238.89801Q95.73125 239.17926 96.075 239.71051Q96.41875 240.22614 96.60625 240.97614Q96.79375 241.72614 96.79375 243.00739Q96.79375 244.52301 96.48125 245.44489Q96.18437 246.36676 95.55937 246.88239Q94.95 247.38239 93.99687 247.38239Q92.7625 247.38239 92.04375 246.49176Q91.2 245.42926 91.2 243.00739ZM92.27812 243.00739Q92.27812 245.11676 92.77812 245.81989Q93.27812 246.52301 93.99687 246.52301Q94.73125 246.52301 95.21562 245.81989Q95.71562 245.11676 95.71562 243.00739Q95.71562 240.88239 95.21562 240.19489Q94.73125 239.49176 93.98125 239.49176Q93.2625 239.49176 92.825 240.10114Q92.27812 240.88239 92.27812 243.00739Z" fill-rule="nonzero"/><path fill="#000000" d="M73.575 156.18352L73.575 154.12102L69.85625 154.12102L69.85625 153.15227L73.77812 147.58977L74.6375 147.58977L74.6375 153.15227L75.79375 153.15227L75.79375 154.12102L74.6375 154.12102L74.6375 156.18352L73.575 156.18352ZM73.575 153.15227L73.575 149.2929L70.8875 153.15227L73.575 153.15227ZM77.2 151.94914Q77.2 150.4179 77.5125 149.49602Q77.825 148.55852 78.43437 148.05852Q79.05937 147.55852 79.99687 147.55852Q80.68437 147.55852 81.2 147.83977Q81.73125 148.12102 82.075 148.65227Q82.41875 149.1679 82.60625 149.9179Q82.79375 150.6679 82.79375 151.94914Q82.79375 153.46477 82.48125 154.38664Q82.18437 155.30852 81.55937 155.82414Q80.95 156.32414 79.99687 156.32414Q78.7625 156.32414 78.04375 155.43352Q77.2 154.37102 77.2 151.94914ZM78.27812 151.94914Q78.27812 154.05852 78.77812 154.76164Q79.27812 155.46477 79.99687 155.46477Q80.73125 155.46477 81.21562 154.76164Q81.71562 154.05852 81.71562 151.94914Q81.71562 149.82414 81.21562 149.13664Q80.73125 148.43352 79.98125 148.43352Q79.2625 148.43352 78.825 149.0429Q78.27812 149.82414 78.27812 151.94914ZM84.2 151.94914Q84.2 150.4179 84.5125 149.49602Q84.825 148.55852 85.43437 148.05852Q86.05937 147.55852 86.99687 147.55852Q87.68437 147.55852 88.2 147.83977Q88.73125 148.12102 89.075 148.65227Q89.41875 149.1679 89.60625 149.9179Q89.79375 150.6679 89.79375 151.94914Q89.79375 153.46477 89.48125 154.38664Q89.18437 155.30852 88.55937 155.82414Q87.95 156.32414 86.99687 156.32414Q85.7625 156.32414 85.04375 155.43352Q84.2 154.37102 84.2 151.94914ZM85.27812 151.94914Q85.27812 154.05852 85.77812 154.76164Q86.27812 155.46477 86.99687 155.46477Q87.73125 155.46477 88.21562 154.76164Q88.71562 154.05852 88.71562 151.94914Q88.71562 149.82414 88.21562 149.13664Q87.73125 148.43352 86.98125 148.43352Q86.2625 148.43352 85.825 149.0429Q85.27812 149.82414 85.27812 151.94914ZM91.2 151.94914Q91.2 150.4179 91.5125 149.49602Q91.825 148.55852 92.43437 148.05852Q93.05937 147.55852 93.99687 147.55852Q94.68437 147.55852 95.2 147.83977Q95.73125 148.12102 96.075 148.65227Q96.41875 149.1679 96.60625 149.9179Q96.79375 150.6679 96.79375 151.94914Q96.79375 153.46477 96.48125 154.38664Q96.18437 155.30852 95.55937 155.82414Q94.95 156.32414 93.99687 156.32414Q92.7625 156.32414 92.04375 155.43352Q91.2 154.37102 91.2 151.94914ZM92.27812 151.94914Q92.27812 154.05852 92.77812 154.76164Q93.27812 155.46477 93.99687 155.46477Q94.73125 155.46477 95.21562 154.76164Q95.71562 154.05852 95.71562 151.94914Q95.71562 149.82414 95.21562 149.13664Q94.73125 148.43352 93.98125 148.43352Q93.2625 148.43352 92.825 149.0429Q92.27812 149.82414 92.27812 151.94914Z" fill-rule="nonzero"/><path fill="#000000" d="M75.66875 58.640915L74.62187 58.71904Q74.48125 58.09404 74.23125 57.81279Q73.79375 57.359665 73.16875 57.359665Q72.66875 57.359665 72.27812 57.640915Q71.79375 58.015915 71.49687 58.71904Q71.21562 59.40654 71.2 60.68779Q71.575 60.109665 72.12187 59.828415Q72.68437 59.547165 73.29375 59.547165Q74.34062 59.547165 75.075 60.328415Q75.825 61.109665 75.825 62.328415Q75.825 63.140915 75.46562 63.84404Q75.12187 64.53154 74.5125 64.90654Q73.90312 65.265915 73.1375 65.265915Q71.80937 65.265915 70.98125 64.297165Q70.15312 63.328415 70.15312 61.109665Q70.15312 58.609665 71.075 57.484665Q71.87187 56.50029 73.23125 56.50029Q74.24687 56.50029 74.8875 57.078415Q75.54375 57.640915 75.66875 58.640915ZM71.37187 62.34404Q71.37187 62.890915 71.59062 63.390915Q71.825 63.87529 72.23125 64.140915Q72.65312 64.40654 73.12187 64.40654Q73.77812 64.40654 74.2625 63.87529Q74.74687 63.328415 74.74687 62.40654Q74.74687 61.515915 74.2625 61.00029Q73.79375 60.484665 73.075 60.484665Q72.35625 60.484665 71.85625 61.00029Q71.37187 61.515915 71.37187 62.34404ZM77.2 60.890915Q77.2 59.359665 77.5125 58.43779Q77.825 57.50029 78.43437 57.00029Q79.05937 56.50029 79.99687 56.50029Q80.68437 56.50029 81.2 56.78154Q81.73125 57.06279 82.075 57.59404Q82.41875 58.109665 82.60625 58.859665Q82.79375 59.609665 82.79375 60.890915Q82.79375 62.40654 82.48125 63.328415Q82.18437 64.25029 81.55937 64.765915Q80.95 65.265915 79.99687 65.265915Q78.7625 65.265915 78.04375 64.37529Q77.2 63.31279 77.2 60.890915ZM78.27812 60.890915Q78.27812 63.00029 78.77812 63.703415Q79.27812 64.40654 79.99687 64.40654Q80.73125 64.40654 81.21562 63.703415Q81.71562 63.00029 81.71562 60.890915Q81.71562 58.765915 81.21562 58.078415Q80.73125 57.37529 79.98125 57.37529Q79.2625 57.37529 78.825 57.984665Q78.27812 58.765915 78.27812 60.890915ZM84.2 60.890915Q84.2 59.359665 84.5125 58.43779Q84.825 57.50029 85.43437 57.00029Q86.05937 56.50029 86.99687 56.50029Q87.68437 56.50029 88.2 56.78154Q88.73125 57.06279 89.075 57.59404Q89.41875 58.109665 89.60625 58.859665Q89.79375 59.609665 89.79375 60.890915Q89.79375 62.40654 89.48125 63.328415Q89.18437 64.25029 88.55937 64.765915Q87.95 65.265915 86.99687 65.265915Q85.7625 65.265915 85.04375 64.37529Q84.2 63.31279 84.2 60.890915ZM85.27812 60.890915Q85.27812 63.00029 85.77812 63.703415Q86.27812 64.40654 86.99687 64.40654Q87.73125 64.40654 88.21562 63.703415Q88.71562 63.00029 88.71562 60.890915Q88.71562 58.765915 88.21562 58.078415Q87.73125 57.37529 86.98125 57.37529Q86.2625 57.37529 85.825 57.984665Q85.27812 58.765915 85.27812 60.890915ZM91.2 60.890915Q91.2 59.359665 91.5125 58.43779Q91.825 57.50029 92.43437 57.00029Q93.05937 56.50029 93.99687 56.50029Q94.68437 56.50029 95.2 56.78154Q95.73125 57.06279 96.075 57.59404Q96.41875 58.109665 96.60625 58.859665Q96.79375 59.609665 96.79375 60.890915Q96.79375 62.40654 96.48125 63.328415Q96.18437 64.25029 95.55937 64.765915Q94.95 65.265915 93.99687 65.265915Q92.7625 65.265915 92.04375 64.37529Q91.2 63.31279 91.2 60.890915ZM92.27812 60.890915Q92.27812 63.00029 92.77812 63.703415Q93.27812 64.40654 93.99687 64.40654Q94.73125 64.40654 95.21562 63.703415Q95.71562 63.00029 95.71562 60.890915Q95.71562 58.765915 95.21562 58.078415Q94.73125 57.37529 93.98125 57.37529Q93.2625 57.37529 92.825 57.984665Q92.27812 58.765915 92.27812 60.890915Z" fill-rule="nonzero"/><path fill="#000000" d="M147.5475 363.8781L147.5475 350.97186L148.985 350.97186L148.985 352.175Q149.50063 351.47186 150.14125 351.1125Q150.78188 350.7531 151.68813 350.7531Q152.89125 350.7531 153.7975 351.3781Q154.71938 351.9875 155.18813 353.1125Q155.65688 354.22186 155.65688 355.5656Q155.65688 356.9875 155.14125 358.14374Q154.62563 359.28436 153.64125 359.90936Q152.65688 360.51874 151.57875 360.51874Q150.7975 360.51874 150.15688 360.1906Q149.53188 359.84686 149.12563 359.33124L149.12563 363.8781L147.5475 363.8781ZM148.985 355.6906Q148.985 357.4875 149.70375 358.34686Q150.43813 359.20624 151.46938 359.20624Q152.53188 359.20624 153.28188 358.3156Q154.03188 357.425 154.03188 355.55Q154.03188 353.76874 153.2975 352.8781Q152.56313 351.9875 151.5475 351.9875Q150.53188 351.9875 149.75063 352.9406Q148.985 353.8781 148.985 355.6906ZM163.06313 360.3L161.485 360.3L161.485 350.22186Q160.90688 350.76874 159.985 351.3156Q159.06313 351.84686 158.31313 352.1281L158.31313 350.59686Q159.64125 349.97186 160.64125 349.08124Q161.64125 348.1906 162.0475 347.3625L163.06313 347.3625L163.06313 360.3ZM167.11 353.9406Q167.11 351.65936 167.57875 350.26874Q168.0475 348.8781 168.96938 348.1281Q169.90688 347.3625 171.31313 347.3625Q172.34438 347.3625 173.12563 347.78436Q173.90688 348.1906 174.40688 348.9875Q174.9225 349.76874 175.21938 350.90936Q175.51625 352.03436 175.51625 353.9406Q175.51625 356.20624 175.0475 357.6125Q174.57875 359.0031 173.64125 359.76874Q172.71938 360.51874 171.31313 360.51874Q169.43813 360.51874 168.37563 359.1906Q167.11 357.58124 167.11 353.9406ZM168.735 353.9406Q168.735 357.1125 169.46938 358.175Q170.21938 359.22186 171.31313 359.22186Q172.39125 359.22186 173.14125 358.175Q173.89125 357.1125 173.89125 353.9406Q173.89125 350.76874 173.14125 349.72186Q172.39125 348.675 171.2975 348.675Q170.20375 348.675 169.5475 349.59686Q168.735 350.76874 168.735 353.9406Z" fill-rule="nonzero"/><path fill="#000000" d="M262.8675 363.8781L262.8675 350.97186L264.305 350.97186L264.305 352.175Q264.82062 351.47186 265.46124 351.1125Q266.10187 350.7531 267.00812 350.7531Q268.21124 350.7531 269.1175 351.3781Q270.03937 351.9875 270.50812 353.1125Q270.97687 354.22186 270.97687 355.5656Q270.97687 356.9875 270.46124 358.14374Q269.94562 359.28436 268.96124 359.90936Q267.97687 360.51874 266.89874 360.51874Q266.1175 360.51874 265.47687 360.1906Q264.85187 359.84686 264.44562 359.33124L264.44562 363.8781L262.8675 363.8781ZM264.305 355.6906Q264.305 357.4875 265.02374 358.34686Q265.75812 359.20624 266.78937 359.20624Q267.85187 359.20624 268.60187 358.3156Q269.35187 357.425 269.35187 355.55Q269.35187 353.76874 268.6175 352.8781Q267.88312 351.9875 266.8675 351.9875Q265.85187 351.9875 265.07062 352.9406Q264.305 353.8781 264.305 355.6906ZM280.7425 358.78436L280.7425 360.3L272.22687 360.3Q272.21124 359.72186 272.41437 359.20624Q272.7425 358.33124 273.44562 357.4875Q274.16437 356.64374 275.52374 355.53436Q277.6175 353.8156 278.35187 352.8156Q279.10187 351.8 279.10187 350.90936Q279.10187 349.95624 278.43 349.3156Q277.75812 348.675 276.68 348.675Q275.52374 348.675 274.83624 349.3625Q274.16437 350.05 274.14874 351.2531L272.52374 351.08124Q272.69562 349.26874 273.77374 348.3156Q274.8675 347.3625 276.71124 347.3625Q278.555 347.3625 279.63312 348.39374Q280.72687 349.425 280.72687 350.9406Q280.72687 351.70624 280.39874 352.45624Q280.08624 353.20624 279.35187 354.03436Q278.6175 354.8625 276.91437 356.3Q275.4925 357.5031 275.08624 357.925Q274.68 358.34686 274.43 358.78436L280.7425 358.78436ZM282.43 356.925L284.08624 356.78436Q284.27374 358.0031 284.94562 358.6125Q285.6175 359.22186 286.57062 359.22186Q287.71124 359.22186 288.4925 358.3625Q289.28937 357.5031 289.28937 356.0656Q289.28937 354.72186 288.52374 353.9406Q287.77374 353.15936 286.53937 353.15936Q285.77374 353.15936 285.14874 353.5031Q284.53937 353.84686 284.19562 354.40936L282.71124 354.20624L283.96124 347.59686L290.3675 347.59686L290.3675 349.09686L285.22687 349.09686L284.52374 352.5656Q285.69562 351.7531 286.96124 351.7531Q288.64874 351.7531 289.805 352.925Q290.97687 354.09686 290.97687 355.925Q290.97687 357.675 289.94562 358.95624Q288.71124 360.51874 286.57062 360.51874Q284.805 360.51874 283.69562 359.53436Q282.58624 358.55 282.43 356.925Z" fill-rule="nonzero"/><path fill="#000000" d="M378.1875 363.8781L378.1875 350.97186L379.625 350.97186L379.625 352.175Q380.14062 351.47186 380.78125 351.1125Q381.42188 350.7531 382.32812 350.7531Q383.53125 350.7531 384.4375 351.3781Q385.35938 351.9875 385.82812 353.1125Q386.29688 354.22186 386.29688 355.5656Q386.29688 356.9875 385.78125 358.14374Q385.26562 359.28436 384.28125 359.90936Q383.29688 360.51874 382.21875 360.51874Q381.4375 360.51874 380.79688 360.1906Q380.17188 359.84686 379.76562 359.33124L379.76562 363.8781L378.1875 363.8781ZM379.625 355.6906Q379.625 357.4875 380.34375 358.34686Q381.07812 359.20624 382.10938 359.20624Q383.17188 359.20624 383.92188 358.3156Q384.67188 357.425 384.67188 355.55Q384.67188 353.76874 383.9375 352.8781Q383.20312 351.9875 382.1875 351.9875Q381.17188 351.9875 380.39062 352.9406Q379.625 353.8781 379.625 355.6906ZM387.75 356.925L389.40625 356.78436Q389.59375 358.0031 390.26562 358.6125Q390.9375 359.22186 391.89062 359.22186Q393.03125 359.22186 393.8125 358.3625Q394.60938 357.5031 394.60938 356.0656Q394.60938 354.72186 393.84375 353.9406Q393.09375 353.15936 391.85938 353.15936Q391.09375 353.15936 390.46875 353.5031Q389.85938 353.84686 389.51562 354.40936L388.03125 354.20624L389.28125 347.59686L395.6875 347.59686L395.6875 349.09686L390.54688 349.09686L389.84375 352.5656Q391.01562 351.7531 392.28125 351.7531Q393.96875 351.7531 395.125 352.925Q396.29688 354.09686 396.29688 355.925Q396.29688 357.675 395.26562 358.95624Q394.03125 360.51874 391.89062 360.51874Q390.125 360.51874 389.01562 359.53436Q387.90625 358.55 387.75 356.925ZM397.75 353.9406Q397.75 351.65936 398.21875 350.26874Q398.6875 348.8781 399.60938 348.1281Q400.54688 347.3625 401.95312 347.3625Q402.98438 347.3625 403.76562 347.78436Q404.54688 348.1906 405.04688 348.9875Q405.5625 349.76874 405.85938 350.90936Q406.15625 352.03436 406.15625 353.9406Q406.15625 356.20624 405.6875 357.6125Q405.21875 359.0031 404.28125 359.76874Q403.35938 360.51874 401.95312 360.51874Q400.07812 360.51874 399.01562 359.1906Q397.75 357.58124 397.75 353.9406ZM399.375 353.9406Q399.375 357.1125 400.10938 358.175Q400.85938 359.22186 401.95312 359.22186Q403.03125 359.22186 403.78125 358.175Q404.53125 357.1125 404.53125 353.9406Q404.53125 350.76874 403.78125 349.72186Q403.03125 348.675 401.9375 348.675Q400.84375 348.675 400.1875 349.59686Q399.375 350.76874 399.375 353.9406Z" fill-rule="nonzero"/><path fill="#000000" d="M493.5075 363.8781L493.5075 350.97186L494.945 350.97186L494.945 352.175Q495.46063 351.47186 496.10126 351.1125Q496.74188 350.7531 497.64813 350.7531Q498.85126 350.7531 499.7575 351.3781Q500.67938 351.9875 501.14813 353.1125Q501.61688 354.22186 501.61688 355.5656Q501.61688 356.9875 501.10126 358.14374Q500.58563 359.28436 499.60126 359.90936Q498.61688 360.51874 497.53876 360.51874Q496.7575 360.51874 496.11688 360.1906Q495.49188 359.84686 495.08563 359.33124L495.08563 363.8781L493.5075 363.8781ZM494.945 355.6906Q494.945 357.4875 495.66376 358.34686Q496.39813 359.20624 497.42938 359.20624Q498.49188 359.20624 499.24188 358.3156Q499.99188 357.425 499.99188 355.55Q499.99188 353.76874 499.2575 352.8781Q498.52313 351.9875 497.5075 351.9875Q496.49188 351.9875 495.71063 352.9406Q494.945 353.8781 494.945 355.6906ZM503.17938 349.09686L503.17938 347.58124L511.5075 347.58124L511.5075 348.8156Q510.28876 350.1281 509.07 352.3Q507.86688 354.45624 507.21063 356.7531Q506.72626 358.3781 506.60126 360.3L504.97626 360.3Q505.0075 358.78436 505.57 356.6281Q506.14813 354.47186 507.21063 352.47186Q508.27313 350.47186 509.47626 349.09686L503.17938 349.09686ZM513.07 356.925L514.72626 356.78436Q514.91376 358.0031 515.58563 358.6125Q516.2575 359.22186 517.21063 359.22186Q518.35126 359.22186 519.1325 358.3625Q519.9294 357.5031 519.9294 356.0656Q519.9294 354.72186 519.16376 353.9406Q518.41376 353.15936 517.1794 353.15936Q516.41376 353.15936 515.78876 353.5031Q515.1794 353.84686 514.83563 354.40936L513.35126 354.20624L514.60126 347.59686L521.0075 347.59686L521.0075 349.09686L515.8669 349.09686L515.16376 352.5656Q516.33563 351.7531 517.60126 351.7531Q519.28876 351.7531 520.445 352.925Q521.6169 354.09686 521.6169 355.925Q521.6169 357.675 520.58563 358.95624Q519.35126 360.51874 517.21063 360.51874Q515.445 360.51874 514.33563 359.53436Q513.22626 358.55 513.07 356.925Z" fill-rule="nonzero"/><path fill="#000000" d="M608.8275 363.8781L608.8275 350.97186L610.265 350.97186L610.265 352.175Q610.78064 351.47186 611.42126 351.1125Q612.0619 350.7531 612.96814 350.7531Q614.17126 350.7531 615.0775 351.3781Q615.9994 351.9875 616.46814 353.1125Q616.9369 354.22186 616.9369 355.5656Q616.9369 356.9875 616.42126 358.14374Q615.90564 359.28436 614.92126 359.90936Q613.9369 360.51874 612.85876 360.51874Q612.0775 360.51874 611.4369 360.1906Q610.8119 359.84686 610.40564 359.33124L610.40564 363.8781L608.8275 363.8781ZM610.265 355.6906Q610.265 357.4875 610.98376 358.34686Q611.71814 359.20624 612.7494 359.20624Q613.8119 359.20624 614.5619 358.3156Q615.3119 357.425 615.3119 355.55Q615.3119 353.76874 614.5775 352.8781Q613.84314 351.9875 612.8275 351.9875Q611.8119 351.9875 611.03064 352.9406Q610.265 353.8781 610.265 355.6906ZM618.6244 357.3156L620.14 357.175Q620.34314 358.2531 620.8744 358.7375Q621.42126 359.22186 622.28064 359.22186Q623.015 359.22186 623.5619 358.89374Q624.10876 358.55 624.4525 358.0031Q624.8119 357.4406 625.04626 356.4875Q625.28064 355.53436 625.28064 354.55Q625.28064 354.4406 625.28064 354.2375Q624.79626 354.9875 623.96814 355.45624Q623.15564 355.925 622.2025 355.925Q620.60876 355.925 619.4994 354.76874Q618.39 353.6125 618.39 351.70624Q618.39 349.7531 619.54626 348.5656Q620.7025 347.3625 622.4369 347.3625Q623.7025 347.3625 624.73376 348.05Q625.78064 348.72186 626.3119 349.97186Q626.85876 351.22186 626.85876 353.59686Q626.85876 356.0656 626.3119 357.53436Q625.78064 358.9875 624.71814 359.7531Q623.67126 360.51874 622.2494 360.51874Q620.73376 360.51874 619.765 359.6906Q618.8119 358.84686 618.6244 357.3156ZM625.10876 351.6281Q625.10876 350.26874 624.3744 349.47186Q623.65564 348.675 622.64 348.675Q621.5775 348.675 620.79626 349.53436Q620.015 350.39374 620.015 351.76874Q620.015 353.0031 620.7494 353.76874Q621.4994 354.53436 622.59314 354.53436Q623.6869 354.53436 624.39 353.76874Q625.10876 353.0031 625.10876 351.6281ZM628.39 353.9406Q628.39 351.65936 628.85876 350.26874Q629.3275 348.8781 630.2494 348.1281Q631.1869 347.3625 632.59314 347.3625Q633.6244 347.3625 634.40564 347.78436Q635.1869 348.1906 635.6869 348.9875Q636.2025 349.76874 636.4994 350.90936Q636.79626 352.03436 636.79626 353.9406Q636.79626 356.20624 636.3275 357.6125Q635.85876 359.0031 634.92126 359.76874Q633.9994 360.51874 632.59314 360.51874Q630.71814 360.51874 629.65564 359.1906Q628.39 357.58124 628.39 353.9406ZM630.015 353.9406Q630.015 357.1125 630.7494 358.175Q631.4994 359.22186 632.59314 359.22186Q633.67126 359.22186 634.42126 358.175Q635.17126 357.1125 635.17126 353.9406Q635.17126 350.76874 634.42126 349.72186Q633.67126 348.675 632.5775 348.675Q631.48376 348.675 630.8275 349.59686Q630.015 350.76874 630.015 353.9406Z" fill-rule="nonzero"/><path stroke="#8db8ff" stroke-width="4.0" stroke-linecap="butt" d="M238.17426 32.175056L250.17426 32.175056" fill-rule="nonzero"/><path fill="#1a1a1a" d="M265.42426 38.675056L265.42426 37.50318Q264.53363 38.893806 262.79926 38.893806Q261.68988 38.893806 260.75238 38.28443Q259.81488 37.65943 259.29926 36.56568Q258.78363 35.456306 258.78363 34.018806Q258.78363 32.612556 259.25238 31.487556Q259.72113 30.346931 260.643 29.737556Q261.5805 29.128181 262.73676 29.128181Q263.5805 29.128181 264.23676 29.487556Q264.893 29.846931 265.31488 30.409431L265.31488 25.784431L266.87738 25.784431L266.87738 38.675056L265.42426 38.675056ZM260.40863 34.018806Q260.40863 35.81568 261.15863 36.706306Q261.92426 37.581306 262.9555 37.581306Q263.98676 37.581306 264.7055 36.737556Q265.43988 35.893806 265.43988 34.143806Q265.43988 32.237556 264.7055 31.346931Q263.97113 30.440681 262.893 30.440681Q261.8305 30.440681 261.11176 31.300056Q260.40863 32.15943 260.40863 34.018806ZM275.75238 35.675056L277.393 35.87818Q277.00238 37.300056 275.9555 38.09693Q274.90863 38.893806 273.28363 38.893806Q271.23676 38.893806 270.03363 37.62818Q268.8305 36.362556 268.8305 34.081306Q268.8305 31.737556 270.03363 30.440681Q271.25238 29.128181 273.18988 29.128181Q275.06488 29.128181 276.25238 30.409431Q277.43988 31.675056 277.43988 33.987556Q277.43988 34.12818 277.42426 34.40943L270.47113 34.40943Q270.54926 35.956306 271.3305 36.768806Q272.12738 37.581306 273.28363 37.581306Q274.15863 37.581306 274.768 37.12818Q275.393 36.675056 275.75238 35.675056ZM270.54926 33.112556L275.768 33.112556Q275.65863 31.940681 275.17426 31.346931Q274.40863 30.425056 273.2055 30.425056Q272.12738 30.425056 271.37738 31.159431Q270.643 31.893806 270.54926 33.112556ZM278.72113 35.893806L280.29926 35.643806Q280.42426 36.581306 281.018 37.081306Q281.62738 37.581306 282.7055 37.581306Q283.79926 37.581306 284.3305 37.143806Q284.86176 36.69068 284.86176 36.09693Q284.86176 35.56568 284.393 35.25318Q284.06488 35.050056 282.768 34.72193Q281.03363 34.28443 280.36176 33.97193Q279.68988 33.643806 279.3305 33.081306Q278.98676 32.50318 278.98676 31.815681Q278.98676 31.190681 279.268 30.659431Q279.56488 30.128181 280.04926 29.784431Q280.42426 29.503181 281.06488 29.315681Q281.7055 29.128181 282.42426 29.128181Q283.53363 29.128181 284.36176 29.456306Q285.18988 29.768806 285.5805 30.315681Q285.98676 30.846931 286.12738 31.753181L284.5805 31.956306Q284.47113 31.237556 283.97113 30.831306Q283.47113 30.425056 282.54926 30.425056Q281.4555 30.425056 280.98676 30.784431Q280.518 31.143806 280.518 31.628181Q280.518 31.940681 280.72113 32.19068Q280.90863 32.44068 281.31488 32.612556Q281.56488 32.69068 282.72113 33.018806Q284.393 33.456306 285.04926 33.75318Q285.72113 34.03443 286.09613 34.581306Q286.48676 35.12818 286.48676 35.925056Q286.48676 36.72193 286.018 37.425056Q285.56488 38.12818 284.68988 38.518806Q283.81488 38.893806 282.72113 38.893806Q280.893 38.893806 279.93988 38.143806Q278.98676 37.37818 278.72113 35.893806ZM288.37738 38.675056L288.37738 25.784431L289.9555 25.784431L289.9555 33.143806L293.68988 29.346931L295.73676 29.346931L292.17426 32.800056L296.11176 38.675056L294.15863 38.675056L291.06488 33.90943L289.9555 34.97193L289.9555 38.675056L288.37738 38.675056ZM300.81488 37.25318L301.04926 38.65943Q300.37738 38.800056 299.84613 38.800056Q298.98676 38.800056 298.50238 38.53443Q298.03363 38.25318 297.84613 37.81568Q297.65863 37.362556 297.65863 35.94068L297.65863 30.565681L296.48676 30.565681L296.48676 29.346931L297.65863 29.346931L297.65863 27.034431L299.22113 26.081306L299.22113 29.346931L300.81488 29.346931L300.81488 30.565681L299.22113 30.565681L299.22113 36.03443Q299.22113 36.706306 299.29926 36.90943Q299.393 37.09693 299.5805 37.206306Q299.768 37.31568 300.12738 37.31568Q300.37738 37.31568 300.81488 37.25318ZM301.768 34.00318Q301.768 31.409431 303.22113 30.159431Q304.42426 29.128181 306.143 29.128181Q308.0805 29.128181 309.29926 30.393806Q310.518 31.659431 310.518 33.87818Q310.518 35.675056 309.97113 36.706306Q309.43988 37.737556 308.40863 38.31568Q307.37738 38.893806 306.143 38.893806Q304.18988 38.893806 302.97113 37.643806Q301.768 36.37818 301.768 34.00318ZM303.393 34.00318Q303.393 35.800056 304.17426 36.69068Q304.9555 37.581306 306.143 37.581306Q307.3305 37.581306 308.11176 36.69068Q308.893 35.78443 308.893 33.956306Q308.893 32.22193 308.09613 31.331306Q307.31488 30.440681 306.143 30.440681Q304.9555 30.440681 304.17426 31.331306Q303.393 32.22193 303.393 34.00318ZM312.36176 42.25318L312.36176 29.346931L313.79926 29.346931L313.79926 30.550056Q314.31488 29.846931 314.9555 29.487556Q315.59613 29.128181 316.50238 29.128181Q317.7055 29.128181 318.61176 29.753181Q319.53363 30.362556 320.00238 31.487556Q320.47113 32.59693 320.47113 33.94068Q320.47113 35.362556 319.9555 36.518806Q319.43988 37.65943 318.4555 38.28443Q317.47113 38.893806 316.393 38.893806Q315.61176 38.893806 314.97113 38.56568Q314.34613 38.22193 313.93988 37.706306L313.93988 42.25318L312.36176 42.25318ZM313.79926 34.06568Q313.79926 35.862556 314.518 36.72193Q315.25238 37.581306 316.28363 37.581306Q317.34613 37.581306 318.09613 36.69068Q318.84613 35.800056 318.84613 33.925056Q318.84613 32.143806 318.11176 31.253181Q317.37738 30.362556 316.36176 30.362556Q315.34613 30.362556 314.56488 31.315681Q313.79926 32.25318 313.79926 34.06568Z" fill-rule="nonzero"/><path stroke="#ea4335" stroke-width="4.0" stroke-linecap="butt" d="M337.17426 32.175056L349.17426 32.175056" fill-rule="nonzero"/><path fill="#1a1a1a" d="M358.36176 38.675056L358.36176 29.346931L359.78363 29.346931L359.78363 30.643806Q360.22113 29.971931 360.93988 29.550056Q361.67426 29.128181 362.61176 29.128181Q363.643 29.128181 364.29926 29.565681Q364.97113 29.987556 365.23676 30.768806Q366.34613 29.128181 368.12738 29.128181Q369.518 29.128181 370.25238 29.909431Q371.00238 30.675056 371.00238 32.268806L371.00238 38.675056L369.43988 38.675056L369.43988 32.800056Q369.43988 31.846931 369.28363 31.425056Q369.12738 31.003181 368.72113 30.753181Q368.31488 30.503181 367.768 30.503181Q366.78363 30.503181 366.12738 31.159431Q365.48676 31.815681 365.48676 33.25318L365.48676 38.675056L363.90863 38.675056L363.90863 32.612556Q363.90863 31.550056 363.518 31.034431Q363.12738 30.503181 362.25238 30.503181Q361.5805 30.503181 361.018 30.862556Q360.4555 31.206306 360.18988 31.878181Q359.93988 32.550056 359.93988 33.831306L359.93988 38.675056L358.36176 38.675056ZM372.768 34.00318Q372.768 31.409431 374.22113 30.159431Q375.42426 29.128181 377.143 29.128181Q379.0805 29.128181 380.29926 30.393806Q381.518 31.659431 381.518 33.87818Q381.518 35.675056 380.97113 36.706306Q380.43988 37.737556 379.40863 38.31568Q378.37738 38.893806 377.143 38.893806Q375.18988 38.893806 373.97113 37.643806Q372.768 36.37818 372.768 34.00318ZM374.393 34.00318Q374.393 35.800056 375.17426 36.69068Q375.9555 37.581306 377.143 37.581306Q378.3305 37.581306 379.11176 36.69068Q379.893 35.78443 379.893 33.956306Q379.893 32.22193 379.09613 31.331306Q378.31488 30.440681 377.143 30.440681Q375.9555 30.440681 375.17426 31.331306Q374.393 32.22193 374.393 34.00318ZM384.81488 38.675056L383.34613 38.675056L383.34613 25.784431L384.93988 25.784431L384.93988 30.393806Q385.93988 29.128181 387.48676 29.128181Q388.34613 29.128181 389.11176 29.487556Q389.893 29.831306 390.37738 30.456306Q390.87738 31.081306 391.15863 31.971931Q391.43988 32.862556 391.43988 33.862556Q391.43988 36.268806 390.25238 37.581306Q389.0805 38.893806 387.40863 38.893806Q385.768 38.893806 384.81488 37.50318L384.81488 38.675056ZM384.79926 33.94068Q384.79926 35.612556 385.25238 36.362556Q386.00238 37.581306 387.28363 37.581306Q388.31488 37.581306 389.06488 36.69068Q389.8305 35.78443 389.8305 34.00318Q389.8305 32.175056 389.09613 31.300056Q388.37738 30.425056 387.34613 30.425056Q386.31488 30.425056 385.54926 31.331306Q384.79926 32.237556 384.79926 33.94068ZM393.37738 27.612556L393.37738 25.784431L394.9555 25.784431L394.9555 27.612556L393.37738 27.612556ZM393.37738 38.675056L393.37738 29.346931L394.9555 29.346931L394.9555 38.675056L393.37738 38.675056ZM397.3305 38.675056L397.3305 25.784431L398.90863 25.784431L398.90863 38.675056L397.3305 38.675056ZM407.75238 35.675056L409.393 35.87818Q409.00238 37.300056 407.9555 38.09693Q406.90863 38.893806 405.28363 38.893806Q403.23676 38.893806 402.03363 37.62818Q400.8305 36.362556 400.8305 34.081306Q400.8305 31.737556 402.03363 30.440681Q403.25238 29.128181 405.18988 29.128181Q407.06488 29.128181 408.25238 30.409431Q409.43988 31.675056 409.43988 33.987556Q409.43988 34.12818 409.42426 34.40943L402.47113 34.40943Q402.54926 35.956306 403.3305 36.768806Q404.12738 37.581306 405.28363 37.581306Q406.15863 37.581306 406.768 37.12818Q407.393 36.675056 407.75238 35.675056ZM402.54926 33.112556L407.768 33.112556Q407.65863 31.940681 407.17426 31.346931Q406.40863 30.425056 405.2055 30.425056Q404.12738 30.425056 403.37738 31.159431Q402.643 31.893806 402.54926 33.112556Z" fill-rule="nonzero"/></svg>